<?xml version="1.0" encoding="UTF-8" standalone="no"?>
<svg
   xmlns:dc="http://purl.org/dc/elements/1.1/"
   xmlns:cc="http://creativecommons.org/ns#"
   xmlns:rdf="http://www.w3.org/1999/02/22-rdf-syntax-ns#"
   xmlns:svg="http://www.w3.org/2000/svg"
   xmlns="http://www.w3.org/2000/svg"
   xmlns:sodipodi="http://sodipodi.sourceforge.net/DTD/sodipodi-0.dtd"
   xmlns:inkscape="http://www.inkscape.org/namespaces/inkscape"
   width="288.65692mm"
   height="123.33879mm"
   viewBox="0 0 288.65692 123.33879"
   version="1.1"
   id="svg457"
   inkscape:version="1.0.1 (3bc2e813f5, 2020-09-07)"
   sodipodi:docname="logo-bgsolid.svg">
  <defs
     id="defs451" />
  <sodipodi:namedview
     id="base"
     pagecolor="#ffffff"
     bordercolor="#666666"
     borderopacity="1.0"
     inkscape:pageopacity="0.0"
     inkscape:pageshadow="2"
     inkscape:zoom="0.35"
     inkscape:cx="250.7305"
     inkscape:cy="307.10712"
     inkscape:document-units="mm"
     inkscape:current-layer="layer1"
     inkscape:document-rotation="0"
     showgrid="false"
     fit-margin-top="0"
     fit-margin-left="0"
     fit-margin-right="0"
     fit-margin-bottom="0"
     inkscape:window-width="1342"
     inkscape:window-height="702"
     inkscape:window-x="8"
     inkscape:window-y="56"
     inkscape:window-maximized="0" />
  <metadata
     id="metadata454">
    <rdf:RDF>
      <cc:Work
         rdf:about="">
        <dc:format>image/svg+xml</dc:format>
        <dc:type
           rdf:resource="http://purl.org/dc/dcmitype/StillImage" />
        <dc:title></dc:title>
      </cc:Work>
    </rdf:RDF>
  </metadata>
  <g
     inkscape:label="Layer 1"
     inkscape:groupmode="layer"
     id="layer1"
     transform="translate(69.45949,-81.699789)">
    <g
       id="g1389">
      <path
         id="path1042"
         style="fill:#4e30e4;fill-opacity:1;stroke-width:0.264999;stroke-linecap:round;stroke-linejoin:round;stroke-miterlimit:4;stroke-dasharray:none;paint-order:fill markers stroke"
         d="m -69.45949,81.699789 c 0,0 0.7004,42.235291 0.70044,71.103041 1.3e-4,28.1368 22.273038,51.22478 50.391672,52.23575 -1.184792,-8.53266 -2.604784,-45.41863 -3.430362,-58.81661 -0.262801,-4.26388 -0.47451,-8.80591 -0.581899,-13.51084 -1.064681,-0.3388 -2.104872,-0.71635 -3.115146,-1.13104 -8.465495,-3.46674 -14.742767,-9.39058 -18.621368,-15.63471 -1.681808,-2.79277 -2.258053,-5.73968 -2.367225,-8.26238 -0.20775,-3.52852 0.314735,-6.78372 1.166966,-9.55758 1.132173,-3.734661 2.914869,-6.663181 4.812608,-8.794991 3.351589,-3.75774 7.920199,-6.63079 10.111698,-7.63064 z m 40.18032,0 c -0.956408,1.24139 -5.980437,5.35025 -8.691128,9.58118 -1.32027,2.05038 -2.44912,4.66626 -3.08447,7.922511 -0.46295,2.42541 -0.639268,5.17025 -0.230505,7.97313 0.333866,2.03055 0.855006,4.14079 1.979384,5.57155 3.632622,5.05693 9.231137,9.72246 16.344862,12.28067 0.168438,0.0604 0.337805,0.11919 0.507957,0.17727 0.01999,-5.2966 0.205432,-10.90731 0.778587,-16.61786 0.45475,-4.68424 1.191202,-9.74155 2.832448,-14.769581 0.602375,-1.86436 1.415181,-3.81872 2.57494,-5.74016 0.892214,-1.53332 2.191886,-3.07949 3.991795,-4.38962 1.398699,-0.8915 2.8366914,-1.56286 4.2865724,-1.98909 z m 28.36802136,0 c 0.880197,0.27992 1.748004,0.67115 2.59669004,1.18217 1.526921,0.95257 2.815329,2.08213 3.88534,3.29373 0.396222,0.44864 0.761332,0.90723 1.09669,1.37046 1.474878,1.99049 2.607685,4.09646 3.4872656,6.192 2.010535,4.747491 3.06924,9.737921 3.329905,14.634531 0.139383,2.45212 0.06264,4.93667 -0.291345,7.4143 -0.312988,2.26905 -0.917725,4.58191 -1.929813,6.82636 -1.099966,2.39539 -2.6154186,4.5364 -4.4289716,6.33597 -2.385636,2.40719 -5.434588,4.13815 -8.820687,4.88683 -4.446569,0.91613 -8.8604134,1.02048 -13.0550634,0.49222 -0.03643,4.02391 -0.01197,7.93635 0.03908,11.63635 0.190695,13.81752 0.722889,50.15538 0.992844,59.04869 8.1183944,-0.27073 233.164954,0 233.164954,0 l 0.0417,-123.313611 z m -3.59844896,7.7476 c -0.07982,-0.002 -0.157401,0.002 -0.232348,0.01 -0.756447,-0.0486 -1.742973,0.4513 -2.788384,1.09432 -0.545687,0.31165 -1.078241,1.02823 -1.669938,1.89547 -0.728922,1.13384 -1.2947604,2.51419 -1.8233554,4.006231 -1.425605,4.07361 -2.122607,8.57048 -2.679305,13.01782 -0.711775,5.84143 -1.020587,11.72419 -1.192409,17.29522 -0.0016,0.0421 -0.002,0.0838 -0.0035,0.12588 3.66686,0.40634 7.4899404,0.24543 11.2380054,-0.64983 1.721005,-0.37765 3.41478796,-1.45851 4.826254,-2.89434 1.123153,-1.17264 2.062322,-2.55829 2.71628,-4.05842 0.604724,-1.3466 0.959819,-2.91954 1.196329,-4.62485 0.245373,-1.85729 0.271461,-3.7998 0.144229,-5.79733 -0.274306,-4.03263 -1.15488,-8.09067 -2.77239,-11.83932 -0.712311,-1.632331 -1.51859604,-3.160021 -2.50151004,-4.454141 -0.231713,-0.29461 -0.463015,-0.57768 -0.694921,-0.84336 -0.62647496,-0.7177 -1.25289396,-1.30469 -1.90438196,-1.66758 -0.632036,-0.35822 -1.299946,-0.60448 -1.85876,-0.61574 z"
         sodipodi:nodetypes="cccccccccccccccccccccccccccsccccccccccccccccccccccccccccscc" />
      <g
         aria-label="erfecto Services"
         transform="matrix(4.3179411,0,0,8.4387033,-739.45165,-1807.1885)"
         id="g1091"
         style="font-style:normal;font-variant:normal;font-weight:normal;font-stretch:normal;font-size:14.1111px;line-height:1.25;font-family:Mathilde;-inkscape-font-specification:'Mathilde, Normal';font-variant-ligatures:normal;font-variant-caps:normal;font-variant-numeric:normal;font-variant-east-asian:normal;letter-spacing:0px;word-spacing:1.58485px;white-space:pre;shape-inside:url(#rect25);fill:#ffffff;fill-opacity:1;stroke:#ffffff;stroke-width:0.0438315;stroke-linecap:round;stroke-linejoin:round;stroke-miterlimit:4;stroke-dasharray:none;stroke-opacity:1;paint-order:normal">
        <path
           d="m 170.57057,233.7355 c -0.33867,0.0141 -0.67734,0.0423 -1.016,0.0423 -0.21167,0 -0.508,0 -0.71967,-0.0423 0.0988,-0.0423 0.18344,-0.0847 0.26811,-0.127 0.33867,-0.15522 0.62089,-0.40922 0.84667,-0.70555 0.15522,-0.21167 0.29633,-0.56445 0.23989,-0.81845 -0.0423,-0.21167 -0.21167,-0.33867 -0.45156,-0.32455 -0.29633,0.0282 -0.64911,0.254 -0.86078,0.49388 -0.19755,0.21167 -0.33866,0.43745 -0.45155,0.69145 -0.0565,0.16933 -0.127,0.381 -0.127,0.57855 0,0.127 0.0423,0.254 0.15522,0.33867 0.254,0.18344 0.77611,0.16933 1.10067,0.14111 0.33866,-0.0141 0.69144,-0.0847 1.03011,-0.14111 0.33866,-0.0423 0.67733,-0.127 1.00189,-0.19756 -0.33867,0.0282 -0.67734,0.0423 -1.016,0.0706 z m -1.84856,-0.66322 c 0.0847,-0.18345 0.23989,-0.42333 0.381,-0.59267 0.254,-0.26811 0.53622,-0.381 0.66322,-0.39511 0.0847,-0.0282 0.127,0.0141 0.127,0.0565 0.0423,0.16933 -0.0847,0.46566 -0.19755,0.62088 -0.16934,0.26812 -0.39511,0.508 -0.69145,0.64911 -0.11289,0.0706 -0.254,0.127 -0.381,0.19756 -0.0282,-0.15522 0.0423,-0.381 0.0988,-0.53622 z"
           style="font-style:normal;font-variant:normal;font-weight:normal;font-stretch:normal;font-size:14.1111px;font-family:Mathilde;-inkscape-font-specification:'Mathilde, Normal';font-variant-ligatures:normal;font-variant-caps:normal;font-variant-numeric:normal;font-variant-east-asian:normal;fill:#ffffff;fill-opacity:1;stroke:#ffffff;stroke-width:0.0438315;stroke-linecap:round;stroke-linejoin:round;stroke-miterlimit:4;stroke-dasharray:none;stroke-opacity:1;paint-order:normal"
           id="path1061" />
        <path
           d="m 173.57622,231.7035 c -0.21167,-0.0705 -0.42333,-0.0847 -0.635,-0.0423 -0.33867,0.0564 -0.59267,0.254 -0.80433,0.55033 -0.16934,0.22578 -0.29634,0.52211 -0.381,0.81845 -0.0847,0.28222 -0.16934,0.55033 -0.19756,0.62088 -0.0141,-0.11289 -0.0564,-0.254 -0.0847,-0.33866 -0.0423,-0.29634 -0.0847,-0.67734 -0.0988,-0.87489 -0.0282,-0.21167 -0.32456,-0.18345 -0.29634,0.0282 0.0141,0.21167 0.0564,0.56445 0.0988,0.889 0.0706,0.31044 0.127,0.52211 0.21167,0.59267 0.0705,0.0564 0.19755,0.0564 0.28222,0.0141 0.0988,-0.0564 0.16933,-0.16934 0.21167,-0.26811 0.0423,-0.15523 0.0847,-0.33867 0.14111,-0.57856 0.0847,-0.254 0.19755,-0.52211 0.36689,-0.73378 0.16933,-0.23988 0.33866,-0.40922 0.60677,-0.46566 0.16934,-0.0423 0.36689,-0.0423 0.53623,-0.0282 0.0988,0 0.14111,-0.14112 0.0423,-0.18345 z"
           style="font-style:normal;font-variant:normal;font-weight:normal;font-stretch:normal;font-size:14.1111px;font-family:Mathilde;-inkscape-font-specification:'Mathilde, Normal';font-variant-ligatures:normal;font-variant-caps:normal;font-variant-numeric:normal;font-variant-east-asian:normal;fill:#ffffff;fill-opacity:1;stroke:#ffffff;stroke-width:0.0438315;stroke-linecap:round;stroke-linejoin:round;stroke-miterlimit:4;stroke-dasharray:none;stroke-opacity:1;paint-order:normal"
           id="path1063" />
        <path
           d="m 175.36832,233.90483 c 0.33867,-0.0423 0.66323,-0.11289 0.95956,-0.19755 -0.33867,0.0282 -0.67733,0.0423 -1.04422,0.0282 -0.14111,-0.28222 -0.31045,-0.57856 -0.55033,-0.79022 -0.21167,-0.21167 -0.46567,-0.35278 -0.762,-0.42333 0.0705,-0.21167 0.127,-0.508 0.19755,-0.71967 0.0423,-0.18344 0.18345,-0.64911 0.29633,-0.84667 0.14112,0 0.18345,-0.18344 0.0847,-0.26811 -0.127,-0.11289 -0.254,-0.0423 -0.33867,0.0847 -0.127,0.21167 -0.28222,0.71967 -0.33866,0.94544 -0.11289,0.381 -0.15522,0.62089 -0.19756,0.83256 -0.0988,0.0564 -0.14111,0.16933 -0.16933,0.26811 -0.0141,0.127 0,0.23989 0.0423,0.33866 -0.0988,0.635 -0.18344,1.25589 -0.21166,1.89089 -0.0141,0.55034 -0.0141,1.15711 0.11289,1.69333 0.0564,0.26812 0.16933,0.56445 0.35277,0.80434 0.127,0.18344 0.29634,0.33866 0.508,0.39511 0.32456,0.0847 0.635,-0.0564 0.889,-0.29634 0.28222,-0.254 0.49389,-0.60677 0.59267,-0.98777 0.127,-0.508 0.15522,-1.10067 -0.0141,-1.69333 -0.0706,-0.29634 -0.23989,-0.71967 -0.40923,-1.05834 z m -0.80433,-0.79022 c 0.16934,0.16933 0.32456,0.36689 0.45156,0.57856 -0.19756,-0.0282 -0.381,-0.0706 -0.55034,-0.127 -0.23988,-0.0847 -0.46566,-0.23989 -0.62088,-0.40923 0.0423,-0.14111 0.0705,-0.26811 0.0847,-0.39511 0.254,0.0423 0.45156,0.18345 0.635,0.35278 z m 1.00189,3.47133 c -0.11289,0.32456 -0.28222,0.66322 -0.53622,0.889 -0.18345,0.16933 -0.39511,0.254 -0.635,0.16933 -0.14111,-0.0423 -0.26811,-0.14111 -0.35278,-0.26811 -0.127,-0.19755 -0.23989,-0.46566 -0.28222,-0.70555 -0.127,-0.508 -0.14111,-1.10067 -0.127,-1.60867 0.0282,-0.508 0.0847,-1.03011 0.16933,-1.524 0.15522,0.127 0.36689,0.23989 0.57856,0.29634 0.22578,0.0705 0.47978,0.0847 0.73378,0.0705 0.19755,0.35278 0.36688,0.81845 0.42333,1.10067 0.15522,0.52211 0.16933,1.07244 0.0282,1.58044 z"
           style="font-style:normal;font-variant:normal;font-weight:normal;font-stretch:normal;font-size:14.1111px;font-family:Mathilde;-inkscape-font-specification:'Mathilde, Normal';font-variant-ligatures:normal;font-variant-caps:normal;font-variant-numeric:normal;font-variant-east-asian:normal;fill:#ffffff;fill-opacity:1;stroke:#ffffff;stroke-width:0.0438315;stroke-linecap:round;stroke-linejoin:round;stroke-miterlimit:4;stroke-dasharray:none;stroke-opacity:1;paint-order:normal"
           id="path1065" />
        <path
           d="m 178.27519,233.7355 c -0.33866,0.0141 -0.67733,0.0423 -1.016,0.0423 -0.21166,0 -0.508,0 -0.71966,-0.0423 0.0988,-0.0423 0.18344,-0.0847 0.26811,-0.127 0.33866,-0.15522 0.62089,-0.40922 0.84666,-0.70555 0.15523,-0.21167 0.29634,-0.56445 0.23989,-0.81845 -0.0423,-0.21167 -0.21166,-0.33867 -0.45155,-0.32455 -0.29634,0.0282 -0.64911,0.254 -0.86078,0.49388 -0.19755,0.21167 -0.33867,0.43745 -0.45155,0.69145 -0.0565,0.16933 -0.127,0.381 -0.127,0.57855 0,0.127 0.0423,0.254 0.15522,0.33867 0.254,0.18344 0.77611,0.16933 1.10066,0.14111 0.33867,-0.0141 0.69145,-0.0847 1.03011,-0.14111 0.33867,-0.0423 0.67734,-0.127 1.00189,-0.19756 -0.33866,0.0282 -0.67733,0.0423 -1.016,0.0706 z m -1.84855,-0.66322 c 0.0847,-0.18345 0.23989,-0.42333 0.381,-0.59267 0.254,-0.26811 0.53622,-0.381 0.66322,-0.39511 0.0847,-0.0282 0.127,0.0141 0.127,0.0565 0.0423,0.16933 -0.0847,0.46566 -0.19756,0.62088 -0.16933,0.26812 -0.39511,0.508 -0.69144,0.64911 -0.11289,0.0706 -0.254,0.127 -0.381,0.19756 -0.0282,-0.15522 0.0423,-0.381 0.0988,-0.53622 z"
           style="font-style:normal;font-variant:normal;font-weight:normal;font-stretch:normal;font-size:14.1111px;font-family:Mathilde;-inkscape-font-specification:'Mathilde, Normal';font-variant-ligatures:normal;font-variant-caps:normal;font-variant-numeric:normal;font-variant-east-asian:normal;fill:#ffffff;fill-opacity:1;stroke:#ffffff;stroke-width:0.0438315;stroke-linecap:round;stroke-linejoin:round;stroke-miterlimit:4;stroke-dasharray:none;stroke-opacity:1;paint-order:normal"
           id="path1067" />
        <path
           d="m 180.61762,233.7355 c -0.31044,0 -0.762,0 -1.07244,-0.0423 -0.15522,-0.0423 -0.32455,-0.0847 -0.42333,-0.16934 -0.0706,-0.0705 -0.11289,-0.15522 -0.11289,-0.23989 0,-0.14111 0.0423,-0.33866 0.11289,-0.46566 0.16933,-0.33867 0.46566,-0.60678 0.69144,-0.73378 0.11289,-0.0423 0.254,-0.11289 0.40922,-0.0847 0.0565,0.0141 0.127,0.0423 0.14111,0.0423 0.0847,0.0423 0.16934,-0.0706 0.127,-0.15522 -0.0423,-0.0423 -0.14111,-0.14112 -0.29633,-0.18345 -0.18344,-0.0423 -0.381,0.0141 -0.52211,0.127 -0.36689,0.18345 -0.66322,0.52211 -0.83255,0.86078 -0.0847,0.19755 -0.16934,0.40922 -0.14112,0.62089 0.0141,0.16933 0.0988,0.31044 0.21167,0.42333 0.16933,0.14111 0.381,0.18344 0.59267,0.21167 0.35277,0.0423 0.80433,0 1.143,-0.0282 0.508,-0.0847 0.97366,-0.16933 1.48166,-0.254 -0.46566,0.0282 -1.016,0.0706 -1.50989,0.0706 z"
           style="font-style:normal;font-variant:normal;font-weight:normal;font-stretch:normal;font-size:14.1111px;font-family:Mathilde;-inkscape-font-specification:'Mathilde, Normal';font-variant-ligatures:normal;font-variant-caps:normal;font-variant-numeric:normal;font-variant-east-asian:normal;fill:#ffffff;fill-opacity:1;stroke:#ffffff;stroke-width:0.0438315;stroke-linecap:round;stroke-linejoin:round;stroke-miterlimit:4;stroke-dasharray:none;stroke-opacity:1;paint-order:normal"
           id="path1069" />
        <path
           d="m 182.48027,231.97161 c -0.0564,-1.83444 0.0282,-2.159 0.0282,-2.30011 0.0141,-0.16933 -0.28222,-0.21166 -0.29633,0 -0.0847,0.52211 -0.0423,1.778 -0.0423,2.32833 -0.15522,0 -0.32455,0 -0.49389,-0.0423 -0.0988,-0.0282 -0.254,-0.0705 -0.31044,-0.16933 -0.0423,-0.0423 -0.0423,-0.16933 -0.16933,-0.15522 -0.0847,0 -0.15523,0.0847 -0.15523,0.16933 0.0282,0.0847 0.0706,0.19755 0.15523,0.254 0.0988,0.127 0.26811,0.16933 0.43744,0.21167 0.16933,0.0423 0.36689,0.0423 0.55033,0.0282 0.0282,0.46566 0.0847,1.43933 0.0847,1.43933 -0.0423,0.0423 -0.0423,0.0988 -0.0141,0.14111 0.0141,0.0847 0.0988,0.127 0.18344,0.11289 0.0847,-0.0282 0.11289,-0.127 0.127,-0.23989 0,-0.16933 -0.0423,-0.31044 -0.0847,-1.48166 0.62088,-0.0847 1.27,-0.31045 1.69333,-0.55034 -0.889,0.16934 -1.15711,0.21167 -1.69333,0.254 z"
           style="font-style:normal;font-variant:normal;font-weight:normal;font-stretch:normal;font-size:14.1111px;font-family:Mathilde;-inkscape-font-specification:'Mathilde, Normal';font-variant-ligatures:normal;font-variant-caps:normal;font-variant-numeric:normal;font-variant-east-asian:normal;fill:#ffffff;fill-opacity:1;stroke:#ffffff;stroke-width:0.0438315;stroke-linecap:round;stroke-linejoin:round;stroke-miterlimit:4;stroke-dasharray:none;stroke-opacity:1;paint-order:normal"
           id="path1071" />
        <path
           d="m 185.86692,232.93117 c 0,-0.19756 -0.0988,-0.381 -0.22578,-0.53622 -0.11289,-0.14112 -0.28222,-0.26812 -0.45155,-0.33867 -0.0988,-0.0423 -0.21167,-0.0564 -0.31045,0 -0.0282,-0.0988 -0.127,-0.16933 -0.23989,-0.0988 -0.0847,0.0564 -0.16933,0.127 -0.26811,0.22578 -0.23989,0.23989 -0.46566,0.59267 -0.508,0.95955 -0.0282,0.21167 0.0141,0.42334 0.16934,0.56445 0.127,0.16933 0.31044,0.23989 0.52211,0.254 0.36689,0.0423 0.74788,-0.0988 1.016,-0.33867 0.19755,-0.18344 0.33866,-0.42333 0.29633,-0.69144 z m -0.47978,0.508 c -0.23989,0.21166 -0.57855,0.31044 -0.80433,0.29633 -0.127,-0.0282 -0.254,-0.0847 -0.32456,-0.19756 -0.0847,-0.127 -0.0988,-0.22577 -0.0847,-0.35277 0.0282,-0.19756 0.127,-0.40922 0.21166,-0.55034 0.11289,-0.127 0.21167,-0.254 0.32456,-0.36688 0.0141,0.0705 0.0423,0.0847 0.0847,0.127 0.127,0.0705 0.21166,-0.0564 0.21166,-0.0847 0.0141,0 0.0565,0 0.0988,0.0282 0.11289,0.0423 0.23989,0.14111 0.29633,0.254 0.0847,0.0988 0.15522,0.22578 0.16934,0.35278 0.0282,0.16933 -0.0565,0.36689 -0.18345,0.49389 z"
           style="font-style:normal;font-variant:normal;font-weight:normal;font-stretch:normal;font-size:14.1111px;font-family:Mathilde;-inkscape-font-specification:'Mathilde, Normal';font-variant-ligatures:normal;font-variant-caps:normal;font-variant-numeric:normal;font-variant-east-asian:normal;fill:#ffffff;fill-opacity:1;stroke:#ffffff;stroke-width:0.0438315;stroke-linecap:round;stroke-linejoin:round;stroke-miterlimit:4;stroke-dasharray:none;stroke-opacity:1;paint-order:normal"
           id="path1073" />
        <path
           d="m 200.2505,230.87095 c -0.381,-0.381 -0.889,-0.59267 -1.397,-0.71967 -0.93133,-0.21167 -2.11666,-0.18344 -3.06211,-0.0847 -0.53622,0.0423 -1.05833,0.127 -1.59455,0.254 0.53622,-0.381 1.43933,-0.97366 2.06022,-1.397 0.98778,-0.64911 1.28411,-0.81844 1.58044,-0.86077 0.15523,-0.0423 0.254,0 0.254,0 0,-0.0282 0.40922,0.0141 0.16934,-0.19756 -0.127,-0.127 -0.29634,-0.14111 -0.46567,-0.127 -0.381,0.0706 -0.71967,0.28222 -1.70744,0.93134 -0.70556,0.46566 -2.35656,1.56633 -2.49767,1.72155 -0.0705,0.0564 -0.11289,0.127 -0.11289,0.21167 0.0423,0.127 0.16934,0.14111 0.29634,0.127 0.32455,-0.0423 1.016,-0.254 2.06022,-0.36689 0.90311,-0.0847 2.04611,-0.127 2.93511,0.11289 0.46566,0.0847 0.93133,0.26811 1.26999,0.60677 0.254,0.254 0.381,0.55034 0.381,0.889 -0.0141,0.59267 -0.43744,1.10067 -0.88899,1.48167 -0.55034,0.45155 -1.24178,0.79022 -1.94734,1.00189 -0.635,0.18344 -1.35466,0.29633 -2.17311,0.31044 -0.49388,0.0282 -1.00188,-0.0141 -1.48166,-0.0988 -0.42333,-0.0847 -0.97367,-0.23989 -1.31233,-0.508 -0.16934,-0.15522 -0.254,-0.32455 -0.254,-0.53622 0,-0.22578 0.127,-0.508 0.18344,-0.67733 -0.22578,0.11289 -0.43744,0.36689 -0.47978,0.66322 -0.0423,0.29633 0.127,0.56444 0.35278,0.77611 0.381,0.32456 0.97367,0.508 1.46755,0.62089 0.42334,0.0847 0.93134,0.127 1.524,0.127 0.77611,-0.0282 1.53811,-0.127 2.286,-0.36689 0.71967,-0.22578 1.45345,-0.56444 2.04611,-1.07244 0.508,-0.42334 0.95956,-1.016 0.97367,-1.69334 0.0282,-0.40922 -0.14111,-0.80433 -0.46567,-1.12888 z"
           style="font-style:normal;font-variant:normal;font-weight:normal;font-stretch:normal;font-size:14.1111px;font-family:Mathilde;-inkscape-font-specification:'Mathilde, Normal';font-variant-ligatures:normal;font-variant-caps:normal;font-variant-numeric:normal;font-variant-east-asian:normal;fill:#ffffff;fill-opacity:1;stroke:#ffffff;stroke-width:0.0438315;stroke-linecap:round;stroke-linejoin:round;stroke-miterlimit:4;stroke-dasharray:none;stroke-opacity:1;paint-order:normal"
           id="path1075" />
        <path
           d="m 203.63716,233.7355 c -0.33867,0.0141 -0.67733,0.0423 -1.016,0.0423 -0.21167,0 -0.508,0 -0.71967,-0.0423 0.0988,-0.0423 0.18345,-0.0847 0.26811,-0.127 0.33867,-0.15522 0.62089,-0.40922 0.84667,-0.70555 0.15522,-0.21167 0.29633,-0.56445 0.23989,-0.81845 -0.0423,-0.21167 -0.21167,-0.33867 -0.45156,-0.32455 -0.29633,0.0282 -0.64911,0.254 -0.86077,0.49388 -0.19756,0.21167 -0.33867,0.43745 -0.45156,0.69145 -0.0564,0.16933 -0.127,0.381 -0.127,0.57855 0,0.127 0.0423,0.254 0.15522,0.33867 0.254,0.18344 0.77611,0.16933 1.10067,0.14111 0.33867,-0.0141 0.69144,-0.0847 1.03011,-0.14111 0.33867,-0.0423 0.67733,-0.127 1.00189,-0.19756 -0.33867,0.0282 -0.67733,0.0423 -1.016,0.0706 z m -1.84856,-0.66322 c 0.0847,-0.18345 0.23989,-0.42333 0.381,-0.59267 0.254,-0.26811 0.53623,-0.381 0.66323,-0.39511 0.0847,-0.0282 0.127,0.0141 0.127,0.0565 0.0423,0.16933 -0.0847,0.46566 -0.19756,0.62088 -0.16933,0.26812 -0.39511,0.508 -0.69144,0.64911 -0.11289,0.0706 -0.254,0.127 -0.381,0.19756 -0.0282,-0.15522 0.0423,-0.381 0.0988,-0.53622 z"
           style="font-style:normal;font-variant:normal;font-weight:normal;font-stretch:normal;font-size:14.1111px;font-family:Mathilde;-inkscape-font-specification:'Mathilde, Normal';font-variant-ligatures:normal;font-variant-caps:normal;font-variant-numeric:normal;font-variant-east-asian:normal;fill:#ffffff;fill-opacity:1;stroke:#ffffff;stroke-width:0.0438315;stroke-linecap:round;stroke-linejoin:round;stroke-miterlimit:4;stroke-dasharray:none;stroke-opacity:1;paint-order:normal"
           id="path1077" />
        <path
           d="m 206.64281,231.7035 c -0.21167,-0.0705 -0.42333,-0.0847 -0.635,-0.0423 -0.33867,0.0564 -0.59267,0.254 -0.80433,0.55033 -0.16934,0.22578 -0.29634,0.52211 -0.381,0.81845 -0.0847,0.28222 -0.16934,0.55033 -0.19756,0.62088 -0.0141,-0.11289 -0.0564,-0.254 -0.0847,-0.33866 -0.0423,-0.29634 -0.0847,-0.67734 -0.0988,-0.87489 -0.0282,-0.21167 -0.32456,-0.18345 -0.29633,0.0282 0.0141,0.21167 0.0564,0.56445 0.0988,0.889 0.0706,0.31044 0.127,0.52211 0.21167,0.59267 0.0705,0.0564 0.19755,0.0564 0.28222,0.0141 0.0988,-0.0564 0.16933,-0.16934 0.21167,-0.26811 0.0423,-0.15523 0.0847,-0.33867 0.14111,-0.57856 0.0847,-0.254 0.19755,-0.52211 0.36689,-0.73378 0.16933,-0.23988 0.33866,-0.40922 0.60677,-0.46566 0.16934,-0.0423 0.36689,-0.0423 0.53623,-0.0282 0.0988,0 0.14111,-0.14112 0.0423,-0.18345 z"
           style="font-style:normal;font-variant:normal;font-weight:normal;font-stretch:normal;font-size:14.1111px;font-family:Mathilde;-inkscape-font-specification:'Mathilde, Normal';font-variant-ligatures:normal;font-variant-caps:normal;font-variant-numeric:normal;font-variant-east-asian:normal;fill:#ffffff;fill-opacity:1;stroke:#ffffff;stroke-width:0.0438315;stroke-linecap:round;stroke-linejoin:round;stroke-miterlimit:4;stroke-dasharray:none;stroke-opacity:1;paint-order:normal"
           id="path1079" />
        <path
           d="m 209.39447,231.36484 c -0.42333,0.22577 -0.84666,0.64911 -1.17122,1.05833 -0.26811,0.33866 -0.52211,0.762 -0.73378,1.143 -0.0282,-0.0282 -0.15522,-0.29634 -0.254,-0.53622 -0.127,-0.22578 -0.32455,-0.60678 -0.46566,-0.762 -0.11289,-0.0988 -0.19756,-0.0565 -0.254,-0.0141 -0.0423,0.0565 -0.0423,0.14112 0.0423,0.22578 0.0847,0.11289 0.31045,0.55034 0.381,0.70556 0.0847,0.16933 0.14111,0.29633 0.254,0.47977 0.0423,0.15523 0.127,0.29634 0.26811,0.32456 0.16934,0.0141 0.21167,-0.127 0.29634,-0.28222 0.19755,-0.33867 0.45155,-0.762 0.71966,-1.11478 0.254,-0.33867 0.66322,-0.83255 1.016,-1.05833 0.0847,-0.0847 0,-0.21167 -0.0988,-0.16933 z"
           style="font-style:normal;font-variant:normal;font-weight:normal;font-stretch:normal;font-size:14.1111px;font-family:Mathilde;-inkscape-font-specification:'Mathilde, Normal';font-variant-ligatures:normal;font-variant-caps:normal;font-variant-numeric:normal;font-variant-east-asian:normal;fill:#ffffff;fill-opacity:1;stroke:#ffffff;stroke-width:0.0438315;stroke-linecap:round;stroke-linejoin:round;stroke-miterlimit:4;stroke-dasharray:none;stroke-opacity:1;paint-order:normal"
           id="path1081" />
        <path
           d="m 210.57981,233.77783 c -0.15523,0.0141 -0.42334,0.0565 -0.508,-0.0282 -0.0847,-0.0423 -0.11289,-0.0988 -0.15523,-0.18344 -0.0564,-0.23989 -0.0564,-0.83256 -0.0423,-1.18534 0,-0.19755 -0.31044,-0.16933 -0.31044,0.0423 0,0.35278 0,0.97366 0.0564,1.22766 0.0706,0.16934 0.127,0.31045 0.29633,0.35278 0.23989,0.0706 0.53623,-0.0423 0.67734,-0.0847 0.11289,-0.0423 0.29633,-0.0988 0.42333,-0.18344 -0.127,0 -0.29633,0.0141 -0.43744,0.0423 z m -0.59267,-2.73755 c 0.0423,0.0706 0.0847,0.127 0.14111,0.16933 0.0706,0.0423 0.127,0.0282 0.16933,-0.0423 0.0706,-0.0847 -0.0423,-0.0847 -0.0141,-0.18344 0,0 0.0423,-0.0706 0.0423,-0.0847 0.0141,-0.0847 -0.0423,-0.16933 -0.127,-0.19756 -0.0847,-0.0141 -0.19756,0.0282 -0.21167,0.11289 0,0.0141 -0.0282,0.0988 0,0.22578 z"
           style="font-style:normal;font-variant:normal;font-weight:normal;font-stretch:normal;font-size:14.1111px;font-family:Mathilde;-inkscape-font-specification:'Mathilde, Normal';font-variant-ligatures:normal;font-variant-caps:normal;font-variant-numeric:normal;font-variant-east-asian:normal;fill:#ffffff;fill-opacity:1;stroke:#ffffff;stroke-width:0.0438315;stroke-linecap:round;stroke-linejoin:round;stroke-miterlimit:4;stroke-dasharray:none;stroke-opacity:1;paint-order:normal"
           id="path1083" />
        <path
           d="m 212.80935,233.7355 c -0.31044,0 -0.762,0 -1.07244,-0.0423 -0.15523,-0.0423 -0.32456,-0.0847 -0.42334,-0.16934 -0.0705,-0.0705 -0.11289,-0.15522 -0.11289,-0.23989 0,-0.14111 0.0423,-0.33866 0.11289,-0.46566 0.16934,-0.33867 0.46567,-0.60678 0.69145,-0.73378 0.11289,-0.0423 0.254,-0.11289 0.40922,-0.0847 0.0564,0.0141 0.127,0.0423 0.14111,0.0423 0.0847,0.0423 0.16933,-0.0706 0.127,-0.15522 -0.0423,-0.0423 -0.14111,-0.14112 -0.29633,-0.18345 -0.18345,-0.0423 -0.381,0.0141 -0.52211,0.127 -0.36689,0.18345 -0.66323,0.52211 -0.83256,0.86078 -0.0847,0.19755 -0.16933,0.40922 -0.14111,0.62089 0.0141,0.16933 0.0988,0.31044 0.21167,0.42333 0.16933,0.14111 0.381,0.18344 0.59266,0.21167 0.35278,0.0423 0.80434,0 1.143,-0.0282 0.508,-0.0847 0.97367,-0.16933 1.48167,-0.254 -0.46567,0.0282 -1.016,0.0706 -1.50989,0.0706 z"
           style="font-style:normal;font-variant:normal;font-weight:normal;font-stretch:normal;font-size:14.1111px;font-family:Mathilde;-inkscape-font-specification:'Mathilde, Normal';font-variant-ligatures:normal;font-variant-caps:normal;font-variant-numeric:normal;font-variant-east-asian:normal;fill:#ffffff;fill-opacity:1;stroke:#ffffff;stroke-width:0.0438315;stroke-linecap:round;stroke-linejoin:round;stroke-miterlimit:4;stroke-dasharray:none;stroke-opacity:1;paint-order:normal"
           id="path1085" />
        <path
           d="m 215.67388,233.7355 c -0.33866,0.0141 -0.67733,0.0423 -1.016,0.0423 -0.21166,0 -0.508,0 -0.71966,-0.0423 0.0988,-0.0423 0.18344,-0.0847 0.26811,-0.127 0.33867,-0.15522 0.62089,-0.40922 0.84666,-0.70555 0.15523,-0.21167 0.29634,-0.56445 0.23989,-0.81845 -0.0423,-0.21167 -0.21166,-0.33867 -0.45155,-0.32455 -0.29633,0.0282 -0.64911,0.254 -0.86078,0.49388 -0.19755,0.21167 -0.33867,0.43745 -0.45155,0.69145 -0.0564,0.16933 -0.127,0.381 -0.127,0.57855 0,0.127 0.0423,0.254 0.15522,0.33867 0.254,0.18344 0.77611,0.16933 1.10066,0.14111 0.33867,-0.0141 0.69145,-0.0847 1.03011,-0.14111 0.33867,-0.0423 0.67734,-0.127 1.00189,-0.19756 -0.33866,0.0282 -0.67733,0.0423 -1.016,0.0706 z m -1.84855,-0.66322 c 0.0847,-0.18345 0.23989,-0.42333 0.381,-0.59267 0.254,-0.26811 0.53622,-0.381 0.66322,-0.39511 0.0847,-0.0282 0.127,0.0141 0.127,0.0565 0.0423,0.16933 -0.0847,0.46566 -0.19756,0.62088 -0.16933,0.26812 -0.39511,0.508 -0.69144,0.64911 -0.11289,0.0706 -0.254,0.127 -0.381,0.19756 -0.0282,-0.15522 0.0423,-0.381 0.0988,-0.53622 z"
           style="font-style:normal;font-variant:normal;font-weight:normal;font-stretch:normal;font-size:14.1111px;font-family:Mathilde;-inkscape-font-specification:'Mathilde, Normal';font-variant-ligatures:normal;font-variant-caps:normal;font-variant-numeric:normal;font-variant-east-asian:normal;fill:#ffffff;fill-opacity:1;stroke:#ffffff;stroke-width:0.0438315;stroke-linecap:round;stroke-linejoin:round;stroke-miterlimit:4;stroke-dasharray:none;stroke-opacity:1;paint-order:normal"
           id="path1087" />
        <path
           d="m 216.90154,232.26795 c 0.254,-0.18345 0.64911,-0.42334 0.97366,-0.56445 0.381,-0.15522 0.39511,-0.0847 0.43745,-0.16933 0.0423,-0.0706 0,-0.16933 -0.0847,-0.19756 -0.127,-0.0423 -0.33867,0.0282 -0.47978,0.0847 -0.32455,0.15522 -0.71966,0.381 -1.04422,0.57855 -0.16933,0.127 -0.33867,0.254 -0.46567,0.39512 -0.0988,0.127 -0.16933,0.28222 -0.0988,0.42333 0.0564,0.127 0.18344,0.21167 0.33866,0.23989 0.21167,0.0564 0.43745,0.0564 0.80434,0.0564 0.29633,0 0.55033,0 0.67733,0.0282 -0.127,0.16934 -0.45156,0.381 -0.62089,0.508 -0.0847,0.0423 -0.14111,0.0847 -0.22578,0.127 0,-0.0847 -0.0847,-0.11289 -0.15522,-0.0847 -0.0847,0.0423 -0.18344,0.14111 -0.18344,0.254 0,0.0847 0.0847,0.16933 0.22577,0.14111 0.127,-0.0423 0.36689,-0.14111 0.46567,-0.22578 0.21167,-0.11289 0.49389,-0.29633 0.66322,-0.46567 0.0847,-0.0847 0.16933,-0.19755 0.16933,-0.29633 0,-0.127 -0.0847,-0.19755 -0.19755,-0.23989 -0.16933,-0.0423 -0.42333,-0.0423 -0.80433,-0.0564 -0.22578,0 -0.77611,0 -0.889,-0.11289 0.0282,-0.127 0.381,-0.35278 0.49389,-0.42333 z"
           style="font-style:normal;font-variant:normal;font-weight:normal;font-stretch:normal;font-size:14.1111px;font-family:Mathilde;-inkscape-font-specification:'Mathilde, Normal';font-variant-ligatures:normal;font-variant-caps:normal;font-variant-numeric:normal;font-variant-east-asian:normal;fill:#ffffff;fill-opacity:1;stroke:#ffffff;stroke-width:0.0438315;stroke-linecap:round;stroke-linejoin:round;stroke-miterlimit:4;stroke-dasharray:none;stroke-opacity:1;paint-order:normal"
           id="path1089" />
      </g>
    </g>
  </g>
</svg>
