<?xml version="1.0" encoding="UTF-8" standalone="no"?>
<svg
   xmlns:dc="http://purl.org/dc/elements/1.1/"
   xmlns:cc="http://creativecommons.org/ns#"
   xmlns:rdf="http://www.w3.org/1999/02/22-rdf-syntax-ns#"
   xmlns:svg="http://www.w3.org/2000/svg"
   xmlns="http://www.w3.org/2000/svg"
   xmlns:sodipodi="http://sodipodi.sourceforge.net/DTD/sodipodi-0.dtd"
   xmlns:inkscape="http://www.inkscape.org/namespaces/inkscape"
   width="385.34357mm"
   height="225.03658mm"
   viewBox="0 0 385.34357 225.03658"
   version="1.1"
   id="svg87"
   inkscape:version="1.0.1 (3bc2e813f5, 2020-09-07)"
   sodipodi:docname="logo-nobg.svg">
  <defs
     id="defs81">
    <inkscape:path-effect
       effect="skeletal"
       id="path-effect20"
       is_visible="true"
       lpeversion="1"
       pattern="m -65.90629,3.8673977 c 0,-2.76 2.24,-5 5,-5 2.76,0 5,2.24 5,5 0,2.76 -2.24,5 -5,5 -2.76,0 -5,-2.24 -5,-5 z"
       copytype="single_stretched"
       prop_scale="1.6538015"
       scale_y_rel="false"
       spacing="0"
       normal_offset="0"
       tang_offset="0"
       prop_units="false"
       vertical_pattern="false"
       hide_knot="false"
       fuse_tolerance="0" />
  </defs>
  <sodipodi:namedview
     id="base"
     pagecolor="#ffffff"
     bordercolor="#666666"
     borderopacity="1.0"
     inkscape:pageopacity="0.0"
     inkscape:pageshadow="2"
     inkscape:zoom="0.35"
     inkscape:cx="1026.942"
     inkscape:cy="483.7066"
     inkscape:document-units="mm"
     inkscape:current-layer="layer1"
     inkscape:document-rotation="0"
     showgrid="false"
     inkscape:window-width="1342"
     inkscape:window-height="702"
     inkscape:window-x="8"
     inkscape:window-y="56"
     inkscape:window-maximized="0" />
  <metadata
     id="metadata84">
    <rdf:RDF>
      <cc:Work
         rdf:about="">
        <dc:format>image/svg+xml</dc:format>
        <dc:type
           rdf:resource="http://purl.org/dc/dcmitype/StillImage" />
        <dc:title></dc:title>
      </cc:Work>
    </rdf:RDF>
  </metadata>
  <g
     inkscape:label="Layer 1"
     inkscape:groupmode="layer"
     id="layer1"
     transform="translate(35.346784,-38.840209)">
    <g
       id="g1021"
       transform="matrix(0.77070703,0,0,0.77036111,4.7275584,8.2151844)"
       style="stroke-width:1.2978">
      <path
         style="fill:#4e30e4;fill-opacity:1;stroke:none;stroke-width:0.343917;stroke-linecap:butt;stroke-linejoin:miter;stroke-miterlimit:4;stroke-dasharray:none;stroke-opacity:1"
         d="m -22.69871,46.695676 c 0.396023,1.042638 -6.413612,3.753569 -12.432349,13.14779 -2.601704,4.04044 -4.826139,9.195187 -6.078142,15.611903 -0.9123,4.779445 -1.260027,10.188798 -0.454521,15.7121 0.657918,4.001359 1.684953,8.159716 3.900634,10.979131 7.158368,9.96511 18.190535,19.15875 32.2087095,24.1999 11.461754,4.11066 24.9782995,5.50976 38.0328425,2.39156 5e-6,-1e-5 1.1e-5,-1e-5 1.6e-5,-1e-5 3.391382,-0.74419 6.72939,-2.87425 9.510794,-5.70367 2.213261,-2.31078 4.064008,-5.04099 5.352668,-7.9971 1.19168,-2.6536 1.891344,-5.7531 2.357405,-9.11356 0.483532,-3.65994 0.534885,-7.487886 0.284177,-11.42418 -0.540568,-7.946634 -2.275972,-15.943408 -5.463414,-23.330442 -1.403669,-3.216635 -2.99247,-6.227359 -4.929376,-8.77754 -0.45663,-0.580547 -0.912484,-1.137974 -1.369487,-1.661536 -1.234503,-1.414298 -2.468518,-2.571201 -3.752343,-3.286305 -1.423404,-0.806744 -2.93959,-1.324976 -4.121087,-1.193568 -1.490654,-0.09576 -3.434686,0.889322 -5.494756,2.156431 -1.075311,0.614136 -2.124285,2.026033 -3.290292,3.734987 -1.436388,2.234335 -2.55153,4.9543 -3.59318,7.894466 -2.809263,8.0274 -4.182983,16.889119 -5.280002,25.652974 -1.402593,11.510983 -2.011084,23.103343 -2.349661,34.081523 0,0 0,1e-5 0,1e-5 -0.401644,13.14921 -0.3729414,26.03644 -0.21023,37.83198 0.389706,28.23652 1.508272,52.12152 2.018163,69.85864 0,0 10e-7,1e-5 10e-7,1e-5 0.292826,10.192 0.418489,17.62514 0.252728,23.69038 -0.08472,3.09052 -0.232061,5.39179 -0.491591,7.22208 -0.132768,0.93528 -0.280093,1.65613 -0.465315,2.2275 0,0 0,0 0,0 -0.09796,0.30233 -0.198717,0.54482 -0.310563,0.73575 -0.191965,0.32094 -0.366346,0.45601 -0.54303,0.41787 -0.136081,-0.0294 -0.318363,-0.20389 -0.447688,-0.46763 -0.08792,-0.16693 -0.1905803,-0.40064 -0.2891259,-0.6724 0,0 -7e-7,0 -7e-7,0 -0.1778974,-0.48873 -0.4072341,-1.24134 -0.6285949,-2.09245 -0.4103178,-1.57154 -0.9806497,-4.13821 -1.5338517,-6.98203 -1.0400805,-5.33858 -2.4657391,-13.83693 -3.8232652,-23.37188 0,0 -1.4e-6,-1e-5 -1.4e-6,-1e-5 -2.4021587,-16.86335 -5.4156855,-42.25088 -7.129197,-70.05898 -0.7371267,-11.95962 -1.2798202,-25.01454 -1.2984329,-38.55297 5e-7,0 0,-2e-5 0,-2e-5 -0.019102,-11.26418 0.3082961,-23.3233 1.5412313,-35.607346 0.8961076,-9.230703 2.34735289,-19.196447 5.5815651,-29.104585 1.1870347,-3.673869 2.7885872,-7.525231 5.0739752,-11.311586 1.7581827,-3.021528 4.3194881,-6.06832 7.8663761,-8.650049 3.705112,-2.718924 8.499,-4.699721 14.096395,-5.117511 4.928285,-0.145951 9.55101,1.141792 13.414574,3.52763 3.008924,1.877118 5.547567,4.102884 7.656128,6.490442 0.78077,0.884078 1.500273,1.787742 2.161113,2.700591 2.906369,3.922412 5.13873,8.072107 6.872004,12.201546 3.961928,9.355307 6.048187,19.189315 6.561859,28.838498 0.274659,4.832073 0.123412,9.72837 -0.574131,14.61075 -0.61678,4.47134 -1.808593,9.02885 -3.803003,13.45172 -2.167563,4.72032 -5.153883,8.93932 -8.727622,12.48552 -4.701082,4.74358 -10.709092,8.15491 -17.381676,9.63025 0,0 -2e-5,0 -2e-5,0 -16.485896,3.3966 -32.7430271,1.12961 -46.325829,-4.44582 -16.681956,-6.83149 -29.051968,-18.50486 -36.695063,-30.80943 -3.314154,-5.50338 -4.449758,-11.310809 -4.664893,-16.282003 -0.409389,-6.953231 0.620184,-13.367747 2.299563,-18.833876 2.231057,-7.359452 5.743974,-13.130176 9.483628,-17.331093 8.857865,-9.931285 17.029161,-10.34699 17.425184,-9.304352 z"
         id="path18"
         sodipodi:nodetypes="cssssc"
         inkscape:original-d="m -22.69871,46.695676 c -25.00096,9.496063 -28.9568,44.830413 -19.80393,58.601124 17.29923,26.0271 49.02872,37.01088 76.63124,30.92335 11.19889,-2.46983 17.82894,-12.00597 20.48638,-17.90827 C 66.60408,91.683479 47.42944,32.803807 20.17807,51.644697 -13.11368,74.661752 12.01504,265.15429 10.59009,271.75474"
         inkscape:path-effect="#path-effect20" />
      <g
         aria-label="erfecto Services"
         transform="matrix(8.5088566,0,0,16.629156,-1410.7246,-3627.1917)"
         id="g1002"
         style="font-style:normal;font-variant:normal;font-weight:normal;font-stretch:normal;font-size:14.1111px;line-height:1.25;font-family:Mathilde;-inkscape-font-specification:'Mathilde, Normal';font-variant-ligatures:normal;font-variant-caps:normal;font-variant-numeric:normal;font-variant-east-asian:normal;letter-spacing:0px;word-spacing:1.58485px;white-space:pre;shape-inside:url(#rect25);fill:#000000;stroke:#000000;stroke-width:0.229116;stroke-miterlimit:4;stroke-dasharray:none">
        <path
           d="m 170.57057,233.7355 c -0.33867,0.0141 -0.67734,0.0423 -1.016,0.0423 -0.21167,0 -0.508,0 -0.71967,-0.0423 0.0988,-0.0423 0.18344,-0.0847 0.26811,-0.127 0.33867,-0.15522 0.62089,-0.40922 0.84667,-0.70555 0.15522,-0.21167 0.29633,-0.56445 0.23989,-0.81845 -0.0423,-0.21167 -0.21167,-0.33867 -0.45156,-0.32455 -0.29633,0.0282 -0.64911,0.254 -0.86078,0.49388 -0.19755,0.21167 -0.33866,0.43745 -0.45155,0.69145 -0.0565,0.16933 -0.127,0.381 -0.127,0.57855 0,0.127 0.0423,0.254 0.15522,0.33867 0.254,0.18344 0.77611,0.16933 1.10067,0.14111 0.33866,-0.0141 0.69144,-0.0847 1.03011,-0.14111 0.33866,-0.0423 0.67733,-0.127 1.00189,-0.19756 -0.33867,0.0282 -0.67734,0.0423 -1.016,0.0706 z m -1.84856,-0.66322 c 0.0847,-0.18345 0.23989,-0.42333 0.381,-0.59267 0.254,-0.26811 0.53622,-0.381 0.66322,-0.39511 0.0847,-0.0282 0.127,0.0141 0.127,0.0565 0.0423,0.16933 -0.0847,0.46566 -0.19755,0.62088 -0.16934,0.26812 -0.39511,0.508 -0.69145,0.64911 -0.11289,0.0706 -0.254,0.127 -0.381,0.19756 -0.0282,-0.15522 0.0423,-0.381 0.0988,-0.53622 z"
           style="font-style:normal;font-variant:normal;font-weight:normal;font-stretch:normal;font-size:14.1111px;font-family:Mathilde;-inkscape-font-specification:'Mathilde, Normal';font-variant-ligatures:normal;font-variant-caps:normal;font-variant-numeric:normal;font-variant-east-asian:normal;fill:#000000;stroke:#000000;stroke-width:0.229116;stroke-miterlimit:4;stroke-dasharray:none"
           id="path972" />
        <path
           d="m 173.57622,231.7035 c -0.21167,-0.0705 -0.42333,-0.0847 -0.635,-0.0423 -0.33867,0.0564 -0.59267,0.254 -0.80433,0.55033 -0.16934,0.22578 -0.29634,0.52211 -0.381,0.81845 -0.0847,0.28222 -0.16934,0.55033 -0.19756,0.62088 -0.0141,-0.11289 -0.0564,-0.254 -0.0847,-0.33866 -0.0423,-0.29634 -0.0847,-0.67734 -0.0988,-0.87489 -0.0282,-0.21167 -0.32456,-0.18345 -0.29634,0.0282 0.0141,0.21167 0.0564,0.56445 0.0988,0.889 0.0706,0.31044 0.127,0.52211 0.21167,0.59267 0.0705,0.0564 0.19755,0.0564 0.28222,0.0141 0.0988,-0.0564 0.16933,-0.16934 0.21167,-0.26811 0.0423,-0.15523 0.0847,-0.33867 0.14111,-0.57856 0.0847,-0.254 0.19755,-0.52211 0.36689,-0.73378 0.16933,-0.23988 0.33866,-0.40922 0.60677,-0.46566 0.16934,-0.0423 0.36689,-0.0423 0.53623,-0.0282 0.0988,0 0.14111,-0.14112 0.0423,-0.18345 z"
           style="font-style:normal;font-variant:normal;font-weight:normal;font-stretch:normal;font-size:14.1111px;font-family:Mathilde;-inkscape-font-specification:'Mathilde, Normal';font-variant-ligatures:normal;font-variant-caps:normal;font-variant-numeric:normal;font-variant-east-asian:normal;fill:#000000;stroke:#000000;stroke-width:0.229116;stroke-miterlimit:4;stroke-dasharray:none"
           id="path974" />
        <path
           d="m 175.36832,233.90483 c 0.33867,-0.0423 0.66323,-0.11289 0.95956,-0.19755 -0.33867,0.0282 -0.67733,0.0423 -1.04422,0.0282 -0.14111,-0.28222 -0.31045,-0.57856 -0.55033,-0.79022 -0.21167,-0.21167 -0.46567,-0.35278 -0.762,-0.42333 0.0705,-0.21167 0.127,-0.508 0.19755,-0.71967 0.0423,-0.18344 0.18345,-0.64911 0.29633,-0.84667 0.14112,0 0.18345,-0.18344 0.0847,-0.26811 -0.127,-0.11289 -0.254,-0.0423 -0.33867,0.0847 -0.127,0.21167 -0.28222,0.71967 -0.33866,0.94544 -0.11289,0.381 -0.15522,0.62089 -0.19756,0.83256 -0.0988,0.0564 -0.14111,0.16933 -0.16933,0.26811 -0.0141,0.127 0,0.23989 0.0423,0.33866 -0.0988,0.635 -0.18344,1.25589 -0.21166,1.89089 -0.0141,0.55034 -0.0141,1.15711 0.11289,1.69333 0.0564,0.26812 0.16933,0.56445 0.35277,0.80434 0.127,0.18344 0.29634,0.33866 0.508,0.39511 0.32456,0.0847 0.635,-0.0564 0.889,-0.29634 0.28222,-0.254 0.49389,-0.60677 0.59267,-0.98777 0.127,-0.508 0.15522,-1.10067 -0.0141,-1.69333 -0.0706,-0.29634 -0.23989,-0.71967 -0.40923,-1.05834 z m -0.80433,-0.79022 c 0.16934,0.16933 0.32456,0.36689 0.45156,0.57856 -0.19756,-0.0282 -0.381,-0.0706 -0.55034,-0.127 -0.23988,-0.0847 -0.46566,-0.23989 -0.62088,-0.40923 0.0423,-0.14111 0.0705,-0.26811 0.0847,-0.39511 0.254,0.0423 0.45156,0.18345 0.635,0.35278 z m 1.00189,3.47133 c -0.11289,0.32456 -0.28222,0.66322 -0.53622,0.889 -0.18345,0.16933 -0.39511,0.254 -0.635,0.16933 -0.14111,-0.0423 -0.26811,-0.14111 -0.35278,-0.26811 -0.127,-0.19755 -0.23989,-0.46566 -0.28222,-0.70555 -0.127,-0.508 -0.14111,-1.10067 -0.127,-1.60867 0.0282,-0.508 0.0847,-1.03011 0.16933,-1.524 0.15522,0.127 0.36689,0.23989 0.57856,0.29634 0.22578,0.0705 0.47978,0.0847 0.73378,0.0705 0.19755,0.35278 0.36688,0.81845 0.42333,1.10067 0.15522,0.52211 0.16933,1.07244 0.0282,1.58044 z"
           style="font-style:normal;font-variant:normal;font-weight:normal;font-stretch:normal;font-size:14.1111px;font-family:Mathilde;-inkscape-font-specification:'Mathilde, Normal';font-variant-ligatures:normal;font-variant-caps:normal;font-variant-numeric:normal;font-variant-east-asian:normal;fill:#000000;stroke:#000000;stroke-width:0.229116;stroke-miterlimit:4;stroke-dasharray:none"
           id="path976" />
        <path
           d="m 178.27519,233.7355 c -0.33866,0.0141 -0.67733,0.0423 -1.016,0.0423 -0.21166,0 -0.508,0 -0.71966,-0.0423 0.0988,-0.0423 0.18344,-0.0847 0.26811,-0.127 0.33866,-0.15522 0.62089,-0.40922 0.84666,-0.70555 0.15523,-0.21167 0.29634,-0.56445 0.23989,-0.81845 -0.0423,-0.21167 -0.21166,-0.33867 -0.45155,-0.32455 -0.29634,0.0282 -0.64911,0.254 -0.86078,0.49388 -0.19755,0.21167 -0.33867,0.43745 -0.45155,0.69145 -0.0565,0.16933 -0.127,0.381 -0.127,0.57855 0,0.127 0.0423,0.254 0.15522,0.33867 0.254,0.18344 0.77611,0.16933 1.10066,0.14111 0.33867,-0.0141 0.69145,-0.0847 1.03011,-0.14111 0.33867,-0.0423 0.67734,-0.127 1.00189,-0.19756 -0.33866,0.0282 -0.67733,0.0423 -1.016,0.0706 z m -1.84855,-0.66322 c 0.0847,-0.18345 0.23989,-0.42333 0.381,-0.59267 0.254,-0.26811 0.53622,-0.381 0.66322,-0.39511 0.0847,-0.0282 0.127,0.0141 0.127,0.0565 0.0423,0.16933 -0.0847,0.46566 -0.19756,0.62088 -0.16933,0.26812 -0.39511,0.508 -0.69144,0.64911 -0.11289,0.0706 -0.254,0.127 -0.381,0.19756 -0.0282,-0.15522 0.0423,-0.381 0.0988,-0.53622 z"
           style="font-style:normal;font-variant:normal;font-weight:normal;font-stretch:normal;font-size:14.1111px;font-family:Mathilde;-inkscape-font-specification:'Mathilde, Normal';font-variant-ligatures:normal;font-variant-caps:normal;font-variant-numeric:normal;font-variant-east-asian:normal;fill:#000000;stroke:#000000;stroke-width:0.229116;stroke-miterlimit:4;stroke-dasharray:none"
           id="path978" />
        <path
           d="m 180.61762,233.7355 c -0.31044,0 -0.762,0 -1.07244,-0.0423 -0.15522,-0.0423 -0.32455,-0.0847 -0.42333,-0.16934 -0.0706,-0.0705 -0.11289,-0.15522 -0.11289,-0.23989 0,-0.14111 0.0423,-0.33866 0.11289,-0.46566 0.16933,-0.33867 0.46566,-0.60678 0.69144,-0.73378 0.11289,-0.0423 0.254,-0.11289 0.40922,-0.0847 0.0565,0.0141 0.127,0.0423 0.14111,0.0423 0.0847,0.0423 0.16934,-0.0706 0.127,-0.15522 -0.0423,-0.0423 -0.14111,-0.14112 -0.29633,-0.18345 -0.18344,-0.0423 -0.381,0.0141 -0.52211,0.127 -0.36689,0.18345 -0.66322,0.52211 -0.83255,0.86078 -0.0847,0.19755 -0.16934,0.40922 -0.14112,0.62089 0.0141,0.16933 0.0988,0.31044 0.21167,0.42333 0.16933,0.14111 0.381,0.18344 0.59267,0.21167 0.35277,0.0423 0.80433,0 1.143,-0.0282 0.508,-0.0847 0.97366,-0.16933 1.48166,-0.254 -0.46566,0.0282 -1.016,0.0706 -1.50989,0.0706 z"
           style="font-style:normal;font-variant:normal;font-weight:normal;font-stretch:normal;font-size:14.1111px;font-family:Mathilde;-inkscape-font-specification:'Mathilde, Normal';font-variant-ligatures:normal;font-variant-caps:normal;font-variant-numeric:normal;font-variant-east-asian:normal;fill:#000000;stroke:#000000;stroke-width:0.229116;stroke-miterlimit:4;stroke-dasharray:none"
           id="path980" />
        <path
           d="m 182.48027,231.97161 c -0.0564,-1.83444 0.0282,-2.159 0.0282,-2.30011 0.0141,-0.16933 -0.28222,-0.21166 -0.29633,0 -0.0847,0.52211 -0.0423,1.778 -0.0423,2.32833 -0.15522,0 -0.32455,0 -0.49389,-0.0423 -0.0988,-0.0282 -0.254,-0.0705 -0.31044,-0.16933 -0.0423,-0.0423 -0.0423,-0.16933 -0.16933,-0.15522 -0.0847,0 -0.15523,0.0847 -0.15523,0.16933 0.0282,0.0847 0.0706,0.19755 0.15523,0.254 0.0988,0.127 0.26811,0.16933 0.43744,0.21167 0.16933,0.0423 0.36689,0.0423 0.55033,0.0282 0.0282,0.46566 0.0847,1.43933 0.0847,1.43933 -0.0423,0.0423 -0.0423,0.0988 -0.0141,0.14111 0.0141,0.0847 0.0988,0.127 0.18344,0.11289 0.0847,-0.0282 0.11289,-0.127 0.127,-0.23989 0,-0.16933 -0.0423,-0.31044 -0.0847,-1.48166 0.62088,-0.0847 1.27,-0.31045 1.69333,-0.55034 -0.889,0.16934 -1.15711,0.21167 -1.69333,0.254 z"
           style="font-style:normal;font-variant:normal;font-weight:normal;font-stretch:normal;font-size:14.1111px;font-family:Mathilde;-inkscape-font-specification:'Mathilde, Normal';font-variant-ligatures:normal;font-variant-caps:normal;font-variant-numeric:normal;font-variant-east-asian:normal;fill:#000000;stroke:#000000;stroke-width:0.229116;stroke-miterlimit:4;stroke-dasharray:none"
           id="path982" />
        <path
           d="m 185.86692,232.93117 c 0,-0.19756 -0.0988,-0.381 -0.22578,-0.53622 -0.11289,-0.14112 -0.28222,-0.26812 -0.45155,-0.33867 -0.0988,-0.0423 -0.21167,-0.0564 -0.31045,0 -0.0282,-0.0988 -0.127,-0.16933 -0.23989,-0.0988 -0.0847,0.0564 -0.16933,0.127 -0.26811,0.22578 -0.23989,0.23989 -0.46566,0.59267 -0.508,0.95955 -0.0282,0.21167 0.0141,0.42334 0.16934,0.56445 0.127,0.16933 0.31044,0.23989 0.52211,0.254 0.36689,0.0423 0.74788,-0.0988 1.016,-0.33867 0.19755,-0.18344 0.33866,-0.42333 0.29633,-0.69144 z m -0.47978,0.508 c -0.23989,0.21166 -0.57855,0.31044 -0.80433,0.29633 -0.127,-0.0282 -0.254,-0.0847 -0.32456,-0.19756 -0.0847,-0.127 -0.0988,-0.22577 -0.0847,-0.35277 0.0282,-0.19756 0.127,-0.40922 0.21166,-0.55034 0.11289,-0.127 0.21167,-0.254 0.32456,-0.36688 0.0141,0.0705 0.0423,0.0847 0.0847,0.127 0.127,0.0705 0.21166,-0.0564 0.21166,-0.0847 0.0141,0 0.0565,0 0.0988,0.0282 0.11289,0.0423 0.23989,0.14111 0.29633,0.254 0.0847,0.0988 0.15522,0.22578 0.16934,0.35278 0.0282,0.16933 -0.0565,0.36689 -0.18345,0.49389 z"
           style="font-style:normal;font-variant:normal;font-weight:normal;font-stretch:normal;font-size:14.1111px;font-family:Mathilde;-inkscape-font-specification:'Mathilde, Normal';font-variant-ligatures:normal;font-variant-caps:normal;font-variant-numeric:normal;font-variant-east-asian:normal;fill:#000000;stroke:#000000;stroke-width:0.229116;stroke-miterlimit:4;stroke-dasharray:none"
           id="path984" />
        <path
           d="m 200.2505,230.87095 c -0.381,-0.381 -0.889,-0.59267 -1.397,-0.71967 -0.93133,-0.21167 -2.11666,-0.18344 -3.06211,-0.0847 -0.53622,0.0423 -1.05833,0.127 -1.59455,0.254 0.53622,-0.381 1.43933,-0.97366 2.06022,-1.397 0.98778,-0.64911 1.28411,-0.81844 1.58044,-0.86077 0.15523,-0.0423 0.254,0 0.254,0 0,-0.0282 0.40922,0.0141 0.16934,-0.19756 -0.127,-0.127 -0.29634,-0.14111 -0.46567,-0.127 -0.381,0.0706 -0.71967,0.28222 -1.70744,0.93134 -0.70556,0.46566 -2.35656,1.56633 -2.49767,1.72155 -0.0705,0.0564 -0.11289,0.127 -0.11289,0.21167 0.0423,0.127 0.16934,0.14111 0.29634,0.127 0.32455,-0.0423 1.016,-0.254 2.06022,-0.36689 0.90311,-0.0847 2.04611,-0.127 2.93511,0.11289 0.46566,0.0847 0.93133,0.26811 1.26999,0.60677 0.254,0.254 0.381,0.55034 0.381,0.889 -0.0141,0.59267 -0.43744,1.10067 -0.88899,1.48167 -0.55034,0.45155 -1.24178,0.79022 -1.94734,1.00189 -0.635,0.18344 -1.35466,0.29633 -2.17311,0.31044 -0.49388,0.0282 -1.00188,-0.0141 -1.48166,-0.0988 -0.42333,-0.0847 -0.97367,-0.23989 -1.31233,-0.508 -0.16934,-0.15522 -0.254,-0.32455 -0.254,-0.53622 0,-0.22578 0.127,-0.508 0.18344,-0.67733 -0.22578,0.11289 -0.43744,0.36689 -0.47978,0.66322 -0.0423,0.29633 0.127,0.56444 0.35278,0.77611 0.381,0.32456 0.97367,0.508 1.46755,0.62089 0.42334,0.0847 0.93134,0.127 1.524,0.127 0.77611,-0.0282 1.53811,-0.127 2.286,-0.36689 0.71967,-0.22578 1.45345,-0.56444 2.04611,-1.07244 0.508,-0.42334 0.95956,-1.016 0.97367,-1.69334 0.0282,-0.40922 -0.14111,-0.80433 -0.46567,-1.12888 z"
           style="font-style:normal;font-variant:normal;font-weight:normal;font-stretch:normal;font-size:14.1111px;font-family:Mathilde;-inkscape-font-specification:'Mathilde, Normal';font-variant-ligatures:normal;font-variant-caps:normal;font-variant-numeric:normal;font-variant-east-asian:normal;fill:#000000;stroke:#000000;stroke-width:0.229116;stroke-miterlimit:4;stroke-dasharray:none"
           id="path986" />
        <path
           d="m 203.63716,233.7355 c -0.33867,0.0141 -0.67733,0.0423 -1.016,0.0423 -0.21167,0 -0.508,0 -0.71967,-0.0423 0.0988,-0.0423 0.18345,-0.0847 0.26811,-0.127 0.33867,-0.15522 0.62089,-0.40922 0.84667,-0.70555 0.15522,-0.21167 0.29633,-0.56445 0.23989,-0.81845 -0.0423,-0.21167 -0.21167,-0.33867 -0.45156,-0.32455 -0.29633,0.0282 -0.64911,0.254 -0.86077,0.49388 -0.19756,0.21167 -0.33867,0.43745 -0.45156,0.69145 -0.0564,0.16933 -0.127,0.381 -0.127,0.57855 0,0.127 0.0423,0.254 0.15522,0.33867 0.254,0.18344 0.77611,0.16933 1.10067,0.14111 0.33867,-0.0141 0.69144,-0.0847 1.03011,-0.14111 0.33867,-0.0423 0.67733,-0.127 1.00189,-0.19756 -0.33867,0.0282 -0.67733,0.0423 -1.016,0.0706 z m -1.84856,-0.66322 c 0.0847,-0.18345 0.23989,-0.42333 0.381,-0.59267 0.254,-0.26811 0.53623,-0.381 0.66323,-0.39511 0.0847,-0.0282 0.127,0.0141 0.127,0.0565 0.0423,0.16933 -0.0847,0.46566 -0.19756,0.62088 -0.16933,0.26812 -0.39511,0.508 -0.69144,0.64911 -0.11289,0.0706 -0.254,0.127 -0.381,0.19756 -0.0282,-0.15522 0.0423,-0.381 0.0988,-0.53622 z"
           style="font-style:normal;font-variant:normal;font-weight:normal;font-stretch:normal;font-size:14.1111px;font-family:Mathilde;-inkscape-font-specification:'Mathilde, Normal';font-variant-ligatures:normal;font-variant-caps:normal;font-variant-numeric:normal;font-variant-east-asian:normal;fill:#000000;stroke:#000000;stroke-width:0.229116;stroke-miterlimit:4;stroke-dasharray:none"
           id="path988" />
        <path
           d="m 206.64281,231.7035 c -0.21167,-0.0705 -0.42333,-0.0847 -0.635,-0.0423 -0.33867,0.0564 -0.59267,0.254 -0.80433,0.55033 -0.16934,0.22578 -0.29634,0.52211 -0.381,0.81845 -0.0847,0.28222 -0.16934,0.55033 -0.19756,0.62088 -0.0141,-0.11289 -0.0564,-0.254 -0.0847,-0.33866 -0.0423,-0.29634 -0.0847,-0.67734 -0.0988,-0.87489 -0.0282,-0.21167 -0.32456,-0.18345 -0.29633,0.0282 0.0141,0.21167 0.0564,0.56445 0.0988,0.889 0.0706,0.31044 0.127,0.52211 0.21167,0.59267 0.0705,0.0564 0.19755,0.0564 0.28222,0.0141 0.0988,-0.0564 0.16933,-0.16934 0.21167,-0.26811 0.0423,-0.15523 0.0847,-0.33867 0.14111,-0.57856 0.0847,-0.254 0.19755,-0.52211 0.36689,-0.73378 0.16933,-0.23988 0.33866,-0.40922 0.60677,-0.46566 0.16934,-0.0423 0.36689,-0.0423 0.53623,-0.0282 0.0988,0 0.14111,-0.14112 0.0423,-0.18345 z"
           style="font-style:normal;font-variant:normal;font-weight:normal;font-stretch:normal;font-size:14.1111px;font-family:Mathilde;-inkscape-font-specification:'Mathilde, Normal';font-variant-ligatures:normal;font-variant-caps:normal;font-variant-numeric:normal;font-variant-east-asian:normal;fill:#000000;stroke:#000000;stroke-width:0.229116;stroke-miterlimit:4;stroke-dasharray:none"
           id="path990" />
        <path
           d="m 209.39447,231.36484 c -0.42333,0.22577 -0.84666,0.64911 -1.17122,1.05833 -0.26811,0.33866 -0.52211,0.762 -0.73378,1.143 -0.0282,-0.0282 -0.15522,-0.29634 -0.254,-0.53622 -0.127,-0.22578 -0.32455,-0.60678 -0.46566,-0.762 -0.11289,-0.0988 -0.19756,-0.0565 -0.254,-0.0141 -0.0423,0.0565 -0.0423,0.14112 0.0423,0.22578 0.0847,0.11289 0.31045,0.55034 0.381,0.70556 0.0847,0.16933 0.14111,0.29633 0.254,0.47977 0.0423,0.15523 0.127,0.29634 0.26811,0.32456 0.16934,0.0141 0.21167,-0.127 0.29634,-0.28222 0.19755,-0.33867 0.45155,-0.762 0.71966,-1.11478 0.254,-0.33867 0.66322,-0.83255 1.016,-1.05833 0.0847,-0.0847 0,-0.21167 -0.0988,-0.16933 z"
           style="font-style:normal;font-variant:normal;font-weight:normal;font-stretch:normal;font-size:14.1111px;font-family:Mathilde;-inkscape-font-specification:'Mathilde, Normal';font-variant-ligatures:normal;font-variant-caps:normal;font-variant-numeric:normal;font-variant-east-asian:normal;fill:#000000;stroke:#000000;stroke-width:0.229116;stroke-miterlimit:4;stroke-dasharray:none"
           id="path992" />
        <path
           d="m 210.57981,233.77783 c -0.15523,0.0141 -0.42334,0.0565 -0.508,-0.0282 -0.0847,-0.0423 -0.11289,-0.0988 -0.15523,-0.18344 -0.0564,-0.23989 -0.0564,-0.83256 -0.0423,-1.18534 0,-0.19755 -0.31044,-0.16933 -0.31044,0.0423 0,0.35278 0,0.97366 0.0564,1.22766 0.0706,0.16934 0.127,0.31045 0.29633,0.35278 0.23989,0.0706 0.53623,-0.0423 0.67734,-0.0847 0.11289,-0.0423 0.29633,-0.0988 0.42333,-0.18344 -0.127,0 -0.29633,0.0141 -0.43744,0.0423 z m -0.59267,-2.73755 c 0.0423,0.0706 0.0847,0.127 0.14111,0.16933 0.0706,0.0423 0.127,0.0282 0.16933,-0.0423 0.0706,-0.0847 -0.0423,-0.0847 -0.0141,-0.18344 0,0 0.0423,-0.0706 0.0423,-0.0847 0.0141,-0.0847 -0.0423,-0.16933 -0.127,-0.19756 -0.0847,-0.0141 -0.19756,0.0282 -0.21167,0.11289 0,0.0141 -0.0282,0.0988 0,0.22578 z"
           style="font-style:normal;font-variant:normal;font-weight:normal;font-stretch:normal;font-size:14.1111px;font-family:Mathilde;-inkscape-font-specification:'Mathilde, Normal';font-variant-ligatures:normal;font-variant-caps:normal;font-variant-numeric:normal;font-variant-east-asian:normal;fill:#000000;stroke:#000000;stroke-width:0.229116;stroke-miterlimit:4;stroke-dasharray:none"
           id="path994" />
        <path
           d="m 212.80935,233.7355 c -0.31044,0 -0.762,0 -1.07244,-0.0423 -0.15523,-0.0423 -0.32456,-0.0847 -0.42334,-0.16934 -0.0705,-0.0705 -0.11289,-0.15522 -0.11289,-0.23989 0,-0.14111 0.0423,-0.33866 0.11289,-0.46566 0.16934,-0.33867 0.46567,-0.60678 0.69145,-0.73378 0.11289,-0.0423 0.254,-0.11289 0.40922,-0.0847 0.0564,0.0141 0.127,0.0423 0.14111,0.0423 0.0847,0.0423 0.16933,-0.0706 0.127,-0.15522 -0.0423,-0.0423 -0.14111,-0.14112 -0.29633,-0.18345 -0.18345,-0.0423 -0.381,0.0141 -0.52211,0.127 -0.36689,0.18345 -0.66323,0.52211 -0.83256,0.86078 -0.0847,0.19755 -0.16933,0.40922 -0.14111,0.62089 0.0141,0.16933 0.0988,0.31044 0.21167,0.42333 0.16933,0.14111 0.381,0.18344 0.59266,0.21167 0.35278,0.0423 0.80434,0 1.143,-0.0282 0.508,-0.0847 0.97367,-0.16933 1.48167,-0.254 -0.46567,0.0282 -1.016,0.0706 -1.50989,0.0706 z"
           style="font-style:normal;font-variant:normal;font-weight:normal;font-stretch:normal;font-size:14.1111px;font-family:Mathilde;-inkscape-font-specification:'Mathilde, Normal';font-variant-ligatures:normal;font-variant-caps:normal;font-variant-numeric:normal;font-variant-east-asian:normal;fill:#000000;stroke:#000000;stroke-width:0.229116;stroke-miterlimit:4;stroke-dasharray:none"
           id="path996" />
        <path
           d="m 215.67388,233.7355 c -0.33866,0.0141 -0.67733,0.0423 -1.016,0.0423 -0.21166,0 -0.508,0 -0.71966,-0.0423 0.0988,-0.0423 0.18344,-0.0847 0.26811,-0.127 0.33867,-0.15522 0.62089,-0.40922 0.84666,-0.70555 0.15523,-0.21167 0.29634,-0.56445 0.23989,-0.81845 -0.0423,-0.21167 -0.21166,-0.33867 -0.45155,-0.32455 -0.29633,0.0282 -0.64911,0.254 -0.86078,0.49388 -0.19755,0.21167 -0.33867,0.43745 -0.45155,0.69145 -0.0564,0.16933 -0.127,0.381 -0.127,0.57855 0,0.127 0.0423,0.254 0.15522,0.33867 0.254,0.18344 0.77611,0.16933 1.10066,0.14111 0.33867,-0.0141 0.69145,-0.0847 1.03011,-0.14111 0.33867,-0.0423 0.67734,-0.127 1.00189,-0.19756 -0.33866,0.0282 -0.67733,0.0423 -1.016,0.0706 z m -1.84855,-0.66322 c 0.0847,-0.18345 0.23989,-0.42333 0.381,-0.59267 0.254,-0.26811 0.53622,-0.381 0.66322,-0.39511 0.0847,-0.0282 0.127,0.0141 0.127,0.0565 0.0423,0.16933 -0.0847,0.46566 -0.19756,0.62088 -0.16933,0.26812 -0.39511,0.508 -0.69144,0.64911 -0.11289,0.0706 -0.254,0.127 -0.381,0.19756 -0.0282,-0.15522 0.0423,-0.381 0.0988,-0.53622 z"
           style="font-style:normal;font-variant:normal;font-weight:normal;font-stretch:normal;font-size:14.1111px;font-family:Mathilde;-inkscape-font-specification:'Mathilde, Normal';font-variant-ligatures:normal;font-variant-caps:normal;font-variant-numeric:normal;font-variant-east-asian:normal;fill:#000000;stroke:#000000;stroke-width:0.229116;stroke-miterlimit:4;stroke-dasharray:none"
           id="path998" />
        <path
           d="m 216.90154,232.26795 c 0.254,-0.18345 0.64911,-0.42334 0.97366,-0.56445 0.381,-0.15522 0.39511,-0.0847 0.43745,-0.16933 0.0423,-0.0706 0,-0.16933 -0.0847,-0.19756 -0.127,-0.0423 -0.33867,0.0282 -0.47978,0.0847 -0.32455,0.15522 -0.71966,0.381 -1.04422,0.57855 -0.16933,0.127 -0.33867,0.254 -0.46567,0.39512 -0.0988,0.127 -0.16933,0.28222 -0.0988,0.42333 0.0564,0.127 0.18344,0.21167 0.33866,0.23989 0.21167,0.0564 0.43745,0.0564 0.80434,0.0564 0.29633,0 0.55033,0 0.67733,0.0282 -0.127,0.16934 -0.45156,0.381 -0.62089,0.508 -0.0847,0.0423 -0.14111,0.0847 -0.22578,0.127 0,-0.0847 -0.0847,-0.11289 -0.15522,-0.0847 -0.0847,0.0423 -0.18344,0.14111 -0.18344,0.254 0,0.0847 0.0847,0.16933 0.22577,0.14111 0.127,-0.0423 0.36689,-0.14111 0.46567,-0.22578 0.21167,-0.11289 0.49389,-0.29633 0.66322,-0.46567 0.0847,-0.0847 0.16933,-0.19755 0.16933,-0.29633 0,-0.127 -0.0847,-0.19755 -0.19755,-0.23989 -0.16933,-0.0423 -0.42333,-0.0423 -0.80433,-0.0564 -0.22578,0 -0.77611,0 -0.889,-0.11289 0.0282,-0.127 0.381,-0.35278 0.49389,-0.42333 z"
           style="font-style:normal;font-variant:normal;font-weight:normal;font-stretch:normal;font-size:14.1111px;font-family:Mathilde;-inkscape-font-specification:'Mathilde, Normal';font-variant-ligatures:normal;font-variant-caps:normal;font-variant-numeric:normal;font-variant-east-asian:normal;fill:#000000;stroke:#000000;stroke-width:0.229116;stroke-miterlimit:4;stroke-dasharray:none"
           id="path1000" />
      </g>
    </g>
  </g>
</svg>
