<?xml version="1.0" encoding="UTF-8" standalone="no"?>
<svg
   xmlns:dc="http://purl.org/dc/elements/1.1/"
   xmlns:cc="http://creativecommons.org/ns#"
   xmlns:rdf="http://www.w3.org/1999/02/22-rdf-syntax-ns#"
   xmlns:svg="http://www.w3.org/2000/svg"
   xmlns="http://www.w3.org/2000/svg"
   xmlns:sodipodi="http://sodipodi.sourceforge.net/DTD/sodipodi-0.dtd"
   xmlns:inkscape="http://www.inkscape.org/namespaces/inkscape"
   width="206.00346mm"
   height="205.93678mm"
   viewBox="0 0 206.00346 205.93678"
   version="1.1"
   id="svg210"
   inkscape:version="1.0.1 (3bc2e813f5, 2020-09-07)"
   sodipodi:docname="logo-icon-circle.svg">
  <defs
     id="defs204" />
  <sodipodi:namedview
     id="base"
     pagecolor="#ffffff"
     bordercolor="#666666"
     borderopacity="1.0"
     inkscape:pageopacity="0.0"
     inkscape:pageshadow="2"
     inkscape:zoom="0.35"
     inkscape:cx="843.1136"
     inkscape:cy="424.71482"
     inkscape:document-units="mm"
     inkscape:current-layer="layer1"
     inkscape:document-rotation="0"
     showgrid="false"
     fit-margin-top="0"
     fit-margin-left="0"
     fit-margin-right="0"
     fit-margin-bottom="0"
     inkscape:window-width="1342"
     inkscape:window-height="702"
     inkscape:window-x="8"
     inkscape:window-y="56"
     inkscape:window-maximized="0" />
  <metadata
     id="metadata207">
    <rdf:RDF>
      <cc:Work
         rdf:about="">
        <dc:format>image/svg+xml</dc:format>
        <dc:type
           rdf:resource="http://purl.org/dc/dcmitype/StillImage" />
        <dc:title></dc:title>
      </cc:Work>
    </rdf:RDF>
  </metadata>
  <g
     inkscape:label="Layer 1"
     inkscape:groupmode="layer"
     id="layer1"
     transform="translate(-1.315043,-25.578881)">
    <path
       id="path850"
       style="opacity:1;fill:#4e30e4;fill-opacity:1;stroke-width:0.264999;stroke-linecap:round;stroke-linejoin:round;stroke-miterlimit:4;stroke-dasharray:none;paint-order:fill markers stroke"
       d="M 104.31651,25.578881 A 103.00179,103.00179 0 0 0 1.315043,128.58086 103.00179,103.00179 0 0 0 100.61596,231.51566 c -2.334737,-16.81429 -5.132936,-41.01889 -6.759787,-67.42069 -0.51788,-8.40233 -0.93508,-17.35276 -1.14671,-26.62421 -2.098029,-0.66763 -4.147809,-1.41161 -6.13864,-2.2288 -16.68195,-6.8315 -29.051819,-18.50492 -36.69492,-30.80949 -3.314149,-5.503379 -4.449691,-11.310507 -4.664829,-16.281697 -0.40939,-6.953232 0.620221,-13.367861 2.2996,-18.833992 2.231059,-7.359459 5.744009,-13.130328 9.483659,-17.33124 8.857871,-9.93129 17.02876,-10.34699 17.424781,-9.30435 0.39602,1.04264 -6.41358,3.75382 -12.432321,13.14804 -2.601699,4.040441 -4.82618,9.195249 -6.078181,15.611961 -0.912299,4.77945 -1.259739,10.188401 -0.454239,15.71171 0.657921,4.00136 1.684861,8.159769 3.90054,10.979179 7.158371,9.965099 18.190711,19.158919 32.208891,24.200069 0.331931,0.11904 0.66566,0.23488 1.000969,0.34933 0.0394,-10.43739 0.40481,-21.49373 1.534271,-32.746839 0.89611,-9.230698 2.34736,-19.19655 5.581579,-29.10468 1.187027,-3.673869 2.788717,-7.525099 5.074107,-11.31146 1.75819,-3.02153 4.31929,-6.06839 7.86618,-8.65012 3.70511,-2.71892 8.49891,-4.69972 14.0963,-5.11751 4.92829,-0.14595 9.55112,1.14159 13.41469,3.52743 3.00891,1.87712 5.54782,4.103 7.65638,6.49056 0.78077,0.88408 1.50026,1.78776 2.16111,2.70061 2.90636,3.922409 5.13866,8.072402 6.87193,12.201841 3.96194,9.355309 6.04821,19.189369 6.56188,28.838549 0.27466,4.83208 0.12341,9.728102 -0.57413,14.610479 -0.61677,4.47134 -1.80846,9.02902 -3.80287,13.45189 -2.16757,4.72032 -5.1539,8.93935 -8.72764,12.48555 -4.70109,4.74357 -10.7093,8.15456 -17.38188,9.6299 -8.76235,1.80532 -17.46019,2.01093 -25.72608,0.96997 -0.0718,7.92944 -0.0236,15.63921 0.077,22.93038 0.37579,27.22856 1.42452,50.35302 1.95647,67.87802 A 103.00179,103.00179 0 0 0 207.3185,128.58086 103.00179,103.00179 0 0 0 104.31651,25.578881 Z m 23.60734,26.637131 c -0.15731,-0.003 -0.31016,0.003 -0.45785,0.0196 -1.49066,-0.0958 -3.43468,0.88935 -5.49475,2.15646 -1.07531,0.61413 -2.12475,2.026219 -3.29076,3.735168 -1.43639,2.23434 -2.55141,4.954442 -3.59306,7.894611 -2.80926,8.0274 -4.18276,16.888841 -5.27978,25.652701 -1.4026,11.510988 -2.01116,23.103468 -2.34973,34.081638 -0.003,0.0829 -0.004,0.16515 -0.007,0.24806 7.22585,0.80073 14.75955,0.48363 22.14542,-1.28056 3.39138,-0.74419 6.72913,-2.8741 9.51053,-5.70352 2.21327,-2.31078 4.06399,-5.04134 5.35265,-7.99745 1.19168,-2.6536 1.89142,-5.75319 2.35748,-9.11365 0.48353,-3.659937 0.53493,-7.487807 0.28422,-11.424108 -0.54056,-7.946639 -2.2758,-15.943332 -5.46324,-23.330361 -1.40367,-3.21664 -2.9925,-6.227058 -4.92941,-8.777239 -0.45663,-0.580549 -0.91242,-1.13836 -1.36943,-1.66192 -1.2345,-1.41429 -2.46891,-2.571001 -3.75274,-3.286101 -1.24547,-0.7059 -2.56165,-1.191181 -3.66283,-1.213369 z" />
  </g>
</svg>
