<?xml version="1.0" encoding="UTF-8" standalone="no"?>
<svg
   xmlns:dc="http://purl.org/dc/elements/1.1/"
   xmlns:cc="http://creativecommons.org/ns#"
   xmlns:rdf="http://www.w3.org/1999/02/22-rdf-syntax-ns#"
   xmlns:svg="http://www.w3.org/2000/svg"
   xmlns="http://www.w3.org/2000/svg"
   xmlns:sodipodi="http://sodipodi.sourceforge.net/DTD/sodipodi-0.dtd"
   xmlns:inkscape="http://www.inkscape.org/namespaces/inkscape"
   width="118.39107mm"
   height="232.00691mm"
   viewBox="0 0 118.39107 232.00691"
   version="1.1"
   id="svg261"
   inkscape:version="1.0.1 (3bc2e813f5, 2020-09-07)"
   sodipodi:docname="logo-icon.svg">
  <defs
     id="defs255">
    <inkscape:path-effect
       effect="skeletal"
       id="path-effect20"
       is_visible="true"
       lpeversion="1"
       pattern="m 31.515378,-7.6189937 c 0,-2.7600003 2.24,-5.0000003 5,-5.0000003 2.76,0 5,2.24 5,5.0000003 0,2.76 -2.24,5 -5,5 -2.76,0 -5,-2.24 -5,-5 z"
       copytype="single_stretched"
       prop_scale="1.6538015"
       scale_y_rel="false"
       spacing="0"
       normal_offset="0"
       tang_offset="0"
       prop_units="false"
       vertical_pattern="false"
       hide_knot="false"
       fuse_tolerance="0" />
  </defs>
  <sodipodi:namedview
     id="base"
     pagecolor="#ffffff"
     bordercolor="#666666"
     borderopacity="1.0"
     inkscape:pageopacity="0.0"
     inkscape:pageshadow="2"
     inkscape:zoom="0.35"
     inkscape:cx="440.51776"
     inkscape:cy="575.71209"
     inkscape:document-units="mm"
     inkscape:current-layer="layer1"
     inkscape:document-rotation="0"
     showgrid="false"
     fit-margin-top="0"
     fit-margin-left="0"
     fit-margin-right="0"
     fit-margin-bottom="0"
     inkscape:window-width="1342"
     inkscape:window-height="702"
     inkscape:window-x="8"
     inkscape:window-y="56"
     inkscape:window-maximized="0" />
  <metadata
     id="metadata258">
    <rdf:RDF>
      <cc:Work
         rdf:about="">
        <dc:format>image/svg+xml</dc:format>
        <dc:type
           rdf:resource="http://purl.org/dc/dcmitype/StillImage" />
        <dc:title></dc:title>
      </cc:Work>
    </rdf:RDF>
  </metadata>
  <g
     inkscape:label="Layer 1"
     inkscape:groupmode="layer"
     id="layer1"
     transform="translate(-45.424812,-28.267723)">
    <path
       style="fill:#4e30e4;fill-opacity:1;stroke:none;stroke-width:0.265;stroke-linecap:butt;stroke-linejoin:miter;stroke-miterlimit:4;stroke-dasharray:none;stroke-opacity:1"
       d="m 74.722958,35.209284 c 0.396023,1.042638 -6.413612,3.753569 -12.432349,13.14779 -2.601704,4.04044 -4.826139,9.195187 -6.078141,15.611903 -0.912301,4.779445 -1.260028,10.188798 -0.454522,15.7121 0.657918,4.001359 1.684953,8.159716 3.900634,10.97913 7.158368,9.965113 18.190535,19.158753 32.208711,24.199903 11.461749,4.11066 24.978299,5.50976 38.032839,2.39156 0,-1e-5 2e-5,-1e-5 2e-5,-1e-5 3.39138,-0.74419 6.72939,-2.87425 9.51079,-5.70367 2.21327,-2.31078 4.06401,-5.04099 5.35267,-7.9971 1.19168,-2.6536 1.89135,-5.753097 2.35741,-9.113561 0.48353,-3.659944 0.53488,-7.487886 0.28417,-11.424181 -0.54056,-7.946633 -2.27597,-15.943408 -5.46341,-23.330441 -1.40367,-3.216636 -2.99247,-6.22736 -4.92938,-8.777541 -0.45663,-0.580547 -0.91248,-1.137974 -1.36948,-1.661535 -1.23451,-1.414298 -2.46852,-2.571202 -3.75235,-3.286306 -1.4234,-0.806744 -2.93959,-1.324975 -4.12108,-1.193568 -1.49066,-0.09576 -3.43469,0.889322 -5.49476,2.156431 -1.07531,0.614136 -2.12428,2.026033 -3.29029,3.734988 -1.43639,2.234334 -2.55153,4.9543 -3.59318,7.894466 -2.80926,8.027399 -4.18298,16.889118 -5.28,25.652973 -1.4026,11.510985 -2.01109,23.103345 -2.34966,34.081515 0,10e-6 0,2e-5 0,2e-5 -0.40165,13.14921 -0.37295,26.03644 -0.21023,37.83198 0.3897,28.23652 1.50827,52.12152 2.01816,69.85864 0,0 0,1e-5 0,1e-5 0.29283,10.19199 0.41849,17.62514 0.25273,23.69038 -0.0847,3.09051 -0.23206,5.39179 -0.49159,7.22208 -0.13277,0.93528 -0.2801,1.65613 -0.46532,2.2275 0,0 0,0 0,0 -0.098,0.30233 -0.19871,0.54482 -0.31056,0.73575 -0.19197,0.32094 -0.36635,0.45601 -0.54303,0.41787 -0.13608,-0.0294 -0.31837,-0.20389 -0.44769,-0.46763 -0.0879,-0.16693 -0.19058,-0.40064 -0.28913,-0.6724 0,0 0,0 0,0 -0.17789,-0.48873 -0.40723,-1.24134 -0.62859,-2.09245 -0.41032,-1.57154 -0.98065,-4.13822 -1.53385,-6.98203 -1.04008,-5.33858 -2.46574,-13.83693 -3.82327,-23.37188 0,0 0,0 0,-1e-5 -2.402158,-16.86335 -5.415685,-42.25088 -7.129197,-70.05898 -0.737127,-11.95962 -1.27982,-25.01454 -1.298433,-38.55297 10e-7,0 0,-2e-5 0,-2e-5 -0.0191,-11.26418 0.308296,-23.323306 1.541232,-35.607347 0.896107,-9.230704 2.347353,-19.196448 5.581565,-29.104586 1.187033,-3.673869 2.788583,-7.525231 5.073973,-11.311586 1.75819,-3.021528 4.31949,-6.068321 7.86638,-8.650049 3.70511,-2.718924 8.499,-4.699721 14.09639,-5.117511 4.92829,-0.145951 9.55101,1.141792 13.41458,3.52763 3.00892,1.877118 5.54757,4.102884 7.65613,6.490442 0.78077,0.884078 1.50027,1.787742 2.16111,2.700591 2.90637,3.922412 5.13873,8.072107 6.872,12.201546 3.96193,9.355307 6.04819,19.189316 6.56186,28.838499 0.27466,4.832073 0.12341,9.728372 -0.57413,14.610751 -0.61678,4.47134 -1.80859,9.02885 -3.803,13.45172 -2.16756,4.72032 -5.15388,8.93932 -8.72762,12.48552 -4.70109,4.74358 -10.7091,8.15491 -17.38168,9.63025 0,0 -2e-5,0 -2e-5,0 -16.4859,3.3966 -32.74303,1.12961 -46.32583,-4.44582 C 70.192583,120.93855 57.822571,109.26518 50.179476,96.960609 46.865322,91.457226 45.729718,85.649799 45.514582,80.678605 45.105194,73.725374 46.134766,67.310858 47.814146,61.844729 50.045203,54.485277 53.55812,48.714553 57.297774,44.513635 66.155638,34.58235 74.326935,34.166646 74.722958,35.209284 Z"
       id="path18"
       sodipodi:nodetypes="cssssc"
       inkscape:original-d="m 74.722958,35.209284 c -25.00096,9.496063 -28.9568,44.830413 -19.80393,58.601124 17.29923,26.027102 49.028722,37.010882 76.631242,30.923352 11.19889,-2.46983 17.82894,-12.00597 20.48638,-17.90827 C 164.02575,80.197087 144.85111,21.317415 117.59974,40.158305 84.307988,63.17536 109.43671,253.6679 108.01176,260.26835"
       inkscape:path-effect="#path-effect20" />
  </g>
</svg>
