<?xml version="1.0" encoding="iso-8859-1"?>
<!-- Generator: Adobe Illustrator 19.0.0, SVG Export Plug-In . SVG Version: 6.00 Build 0)  -->
<svg version="1.1" id="Capa_1" xmlns="http://www.w3.org/2000/svg" xmlns:xlink="http://www.w3.org/1999/xlink" x="0px" y="0px"
	 viewBox="0 0 504.123 504.123" style="enable-background:new 0 0 504.123 504.123;" xml:space="preserve">
<path style="fill:#E1E6E8;" d="M472.615,7.877H31.508c-13.391,0-23.631,10.24-23.631,23.631v309.563h488.369V31.508
	C496.246,18.117,486.006,7.877,472.615,7.877z"/>
<path style="fill:#183651;" d="M496.246,348.948H7.877c-4.726,0-7.877-3.151-7.877-7.877V31.508C0,14.178,14.178,0,31.508,0h441.108
	c17.329,0,31.508,14.178,31.508,31.508v309.563C504.123,345.797,500.972,348.948,496.246,348.948z M15.754,333.194h472.615V31.508
	c0-8.665-7.089-15.754-15.754-15.754H31.508c-8.665,0-15.754,7.089-15.754,15.754V333.194z"/>
<rect x="39.385" y="39.385" style="fill:#FFFFFF;" width="425.354" height="270.178"/>
<path style="fill:#E1E6E8;" d="M347.372,464.738H139.422c-13.391,0-23.631,10.24-23.631,23.631v7.877h256v-7.877
	C371.003,474.978,360.763,464.738,347.372,464.738z"/>
<path style="fill:#183651;" d="M371.003,504.123H115.791c-4.726,0-7.877-3.151-7.877-7.877v-7.877
	c0-17.329,14.178-31.508,31.508-31.508H348.16c17.329,0,31.508,14.178,31.508,31.508v7.877
	C378.88,500.972,375.729,504.123,371.003,504.123z M123.668,488.369h240.246l0,0c0-8.665-7.089-15.754-15.754-15.754H139.422
	C130.757,472.615,123.668,479.705,123.668,488.369L123.668,488.369z"/>
<polygon style="fill:#FFFFFF;" points="322.166,464.738 165.415,464.738 196.135,420.628 290.658,420.628 "/>
<path style="fill:#183651;" d="M322.166,472.615L322.166,472.615H165.415c-3.151,0-5.514-1.575-7.089-3.938
	c-1.575-2.363-0.788-5.514,0.788-7.877l30.72-43.323c1.575-2.363,3.938-3.151,6.302-3.151h94.523c2.363,0,4.726,1.575,6.302,3.151
	l29.932,42.535c1.575,1.575,2.363,3.151,2.363,5.514C330.043,468.677,326.105,472.615,322.166,472.615z M180.382,456.862h126.031
	l-19.692-27.569h-86.646L180.382,456.862z"/>
<path style="fill:#FFFFFF;" d="M7.877,341.071v55.926c0,13.391,10.24,23.631,23.631,23.631h441.108
	c13.391,0,23.631-10.24,23.631-23.631v-55.926H7.877z"/>
<path style="fill:#183651;" d="M472.615,428.505H31.508C14.178,428.505,0,414.326,0,396.997v-55.926
	c0-4.726,3.151-7.877,7.877-7.877h488.369c4.726,0,7.877,3.151,7.877,7.877v55.926C504.123,414.326,489.945,428.505,472.615,428.505
	z M15.754,348.948v48.049c0,8.665,7.089,15.754,15.754,15.754h441.108c8.665,0,15.754-7.089,15.754-15.754v-48.049H15.754z"/>
<g>
	<circle style="fill:#173651;" cx="196.135" cy="381.243" r="15.754"/>
	<circle style="fill:#173651;" cx="252.062" cy="381.243" r="15.754"/>
	<circle style="fill:#173651;" cx="307.988" cy="381.243" r="15.754"/>
</g>
<g>
	<rect x="197.474" y="209.676" style="fill:#2AA0DA;" width="39.385" height="68.529"/>
	<rect x="134.223" y="141.548" style="fill:#2AA0DA;" width="39.385" height="136.271"/>
	<rect x="70.971" y="180.933" style="fill:#2AA0DA;" width="39.385" height="96.886"/>
</g>
<path style="fill:#F05F50;" d="M338.708,250.486h25.206l3.938-23.631c8.665-1.575,16.542-5.514,23.631-9.452l19.692,14.178
	l18.117-18.117l-14.178-20.48c4.726-7.089,7.877-14.966,9.452-23.631l23.631-3.938v-25.206l-23.631-3.938
	c-1.575-8.665-5.514-16.542-9.452-23.631l14.178-19.692l-18.117-18.117l-19.692,14.178c-7.089-4.726-14.966-7.877-23.631-9.452
	l-3.938-23.631h-25.206l-3.938,23.631c-8.665,1.575-16.542,5.514-23.631,9.452l-19.692-14.178l-18.117,18.117l14.178,19.692
	c-4.726,7.089-7.877,14.966-9.452,23.631l-23.631,3.938v25.206l23.631,3.938c1.575,8.665,5.514,16.542,9.452,23.631l-14.178,19.692
	l18.117,18.117l19.692-14.178c7.089,4.726,14.966,7.877,23.631,9.452L338.708,250.486z"/>
<ellipse style="fill:#FFFFFF;" cx="351.042" cy="152.763" rx="53.563" ry="53.563"/>
<ellipse style="fill:#F05F50;" cx="351.121" cy="152.763" rx="28.357" ry="28.357"/>
<g>
	<rect x="111.852" y="75.618" style="fill:#183651;" width="15.754" height="15.754"/>
	<rect x="180.382" y="75.618" style="fill:#183651;" width="15.754" height="15.754"/>
	<rect x="214.252" y="75.618" style="fill:#183651;" width="15.754" height="15.754"/>
	<rect x="77.194" y="75.618" style="fill:#183651;" width="15.754" height="15.754"/>
	<rect x="145.723" y="75.618" style="fill:#183651;" width="15.754" height="15.754"/>
</g>
<g>
</g>
<g>
</g>
<g>
</g>
<g>
</g>
<g>
</g>
<g>
</g>
<g>
</g>
<g>
</g>
<g>
</g>
<g>
</g>
<g>
</g>
<g>
</g>
<g>
</g>
<g>
</g>
<g>
</g>
</svg>
